<svg xmlns="http://www.w3.org/2000/svg" width="560" height="380" viewBox="0 0 560 380" fill="none"><path d="M94.0403 143.394C95.5828 142.531 97.1476 141.728 98.9217 141.459C100.001 141.037 101.129 141.138 102.242 141.138C163.07 141.138 223.898 141.287 284.726 141.082C324.774 140.947 364.822 141.082 404.874 140.955C410.667 140.955 414.252 143.439 416.246 148.777C416.533 149.532 416.679 150.334 416.676 151.142C416.676 171.601 416.676 192.058 416.676 212.514C416.689 212.891 416.654 213.267 416.571 213.635C416.396 214.352 415.862 214.755 415.2 214.572C410.719 213.414 407.653 215.977 404.508 218.618C405.073 218.643 405.639 218.574 406.181 218.413C406.79 218.304 407.395 218.159 408.011 218.102C408.385 218.073 408.822 218.058 408.978 218.454C409.135 218.85 408.754 219.152 408.441 219.305C406.037 220.442 403.576 221.453 401.068 222.335C400.407 222.582 399.858 222.257 399.645 221.517C399.38 220.396 399.466 219.276 399.466 218.155C399.466 198.944 399.466 179.733 399.466 160.522C399.466 159.838 399.444 159.151 399.466 158.467C399.466 157.209 398.868 156.663 397.64 156.686C396.956 156.686 396.273 156.686 395.586 156.686H110.32C106.619 156.686 106.615 156.686 106.615 160.305C106.615 220.175 106.615 280.046 106.615 339.92C106.615 340.959 106.425 342.035 106.951 343.017C107.146 343.221 107.384 343.377 107.648 343.476C107.912 343.574 108.195 343.611 108.475 343.585C108.972 343.585 109.469 343.585 109.969 343.585C205.368 343.585 300.765 343.585 396.161 343.585C397.177 343.585 398.304 343.94 399.148 343.002C399.63 341.994 399.451 340.918 399.451 339.875C399.451 303.872 399.451 267.869 399.451 231.868C399.403 230.689 399.435 229.509 399.548 228.334C400.471 226.467 402.909 225.779 405.083 226.919C408.261 228.581 411.298 230.501 414.371 232.346C415.208 232.851 416.209 233.161 416.538 234.248C416.672 235.046 416.713 235.857 416.661 236.665C416.661 276.576 416.661 316.484 416.661 356.391C416.661 357.425 416.889 358.52 416.175 359.454C415.186 360.201 414.024 359.943 412.93 359.943C379.73 359.958 346.529 359.958 313.327 359.943C284.913 359.943 256.503 360.122 228.089 360.022C183.137 359.861 138.185 359.999 93.2336 359.932C92.1356 359.932 90.9927 360.178 89.9619 359.517C89.1627 358.624 89.4017 357.523 89.4017 356.488C89.3868 329.392 89.3868 302.298 89.4017 275.205C89.4017 255.07 89.2561 234.935 89.4428 214.804C89.6333 194.609 89.4764 174.418 89.6146 154.228C89.637 151.239 89.6146 148.112 91.7696 145.583C92.4568 144.762 93.1141 143.943 94.0403 143.394Z" fill="#004ED8"></path><path d="M50.0443 379.596C49.4542 380.115 48.7409 379.906 48.0761 379.906C33.6487 379.906 19.2213 379.876 4.79388 379.966C3.08709 379.966 2.44471 379.342 2.29532 377.87C1.79735 372.957 1.25332 368.052 0.663225 363.156C-0.356367 354.661 0.110472 346.17 0.0843288 337.683C0.0843288 333.693 0.741655 329.703 1.30561 325.729C1.88076 321.62 2.16834 317.51 3.03481 313.461C4.43908 306.901 5.74624 300.323 7.99084 293.946C9.41752 289.886 10.6873 285.769 12.3381 281.787C13.4585 279.06 14.6798 276.367 15.8824 273.669C18.1606 268.548 21.1671 263.811 24.0279 259.018C26.1343 255.496 28.8122 252.313 31.3742 249.074C36.4651 242.711 42.2415 236.928 48.599 231.831C55.1498 226.504 62.4176 222.38 69.7415 218.263C73.8498 215.951 78.0439 213.821 82.2679 211.759C84.3855 210.728 86.4172 209.335 88.8673 209.059C89.6403 209.903 89.3827 210.926 89.3827 211.913C89.3976 232.306 89.3976 252.7 89.3827 273.094C89.3827 300.887 89.3827 328.68 89.3827 356.473C89.3827 357.451 89.5843 358.471 89.0092 359.383C87.9933 360.231 86.7683 359.98 85.6143 359.984C69.8461 359.999 54.0779 359.999 38.3097 359.984C37.5627 359.984 36.8158 359.984 36.0688 360.018C35.2024 360.063 34.6309 360.444 34.6347 361.366C34.6347 364.71 34.2986 368.061 34.8513 371.385C35.8074 373.234 37.4918 374.28 39.2172 375.248C42.0271 376.817 45.0635 377.94 48.218 378.576C48.9127 378.733 49.753 378.696 50.0443 379.596Z" fill="#FEEDCE"></path><path d="M555.709 226.224C558.41 235.084 559.388 244.154 559 253.393C558.626 262.765 556.927 271.955 554.753 281.058C552.419 290.816 549.525 300.413 546.455 309.965C546.377 310.264 546.321 310.569 546.287 310.876C545.282 310.573 545.54 309.703 545.54 309.031C545.607 293.931 537.779 283.666 525.349 276.333C520.378 273.4 515.12 270.961 509.936 268.406C493.761 260.442 477.757 252.141 461.649 244.039C454.157 240.266 446.71 236.426 439.199 232.66C436.552 231.33 434.949 228.883 432.955 226.859C429.556 223.407 426.232 219.866 422.946 216.32C421.896 215.2 420.727 214.621 419.166 214.71C418.277 214.759 417.228 214.894 416.821 213.691C416.677 212.953 416.633 212.199 416.69 211.449C416.69 201.58 416.69 191.71 416.69 181.841C416.69 180.978 416.559 180.093 417.011 179.286C418.486 178.068 420.294 177.941 422.068 177.889C425.766 177.78 429.47 177.922 433.164 177.747C433.874 177.922 433.877 178.419 433.538 178.867C430.176 183.111 431.338 187.665 433.037 191.942C436.559 200.84 443.121 205.786 452.88 206.331C464.122 206.955 472.85 202.331 479.804 193.836C482.62 190.395 484.603 186.451 486.549 182.48C487.105 181.359 487.296 180.403 486.116 179.566C485.989 179.472 485.897 179.338 485.856 179.185C485.814 179.033 485.826 178.871 485.888 178.725C488.155 178.187 490.452 178.598 492.689 178.759C497.757 179.133 502.818 179.682 507.845 180.519C512.091 181.225 515.893 182.872 519.572 185.054C528.121 190.123 536.005 195.995 542.727 203.358C548.395 209.573 552.789 216.838 555.661 224.744C555.803 225.249 555.975 225.727 555.709 226.224Z" fill="#081F59"></path><path d="M388.482 86.6541C390.267 83.6171 391.436 80.2326 393.662 77.4459C394.812 76.0002 395.843 74.4163 398.054 74.4163C398.913 74.4163 398.98 73.5384 399.059 72.8586C399.507 68.8913 399.059 64.9428 398.819 60.9905C398.551 56.7208 398.211 52.4473 399.245 48.2223C400.366 43.6723 402.879 42.0586 407.488 43.0896C413.837 44.5166 420.246 45.0806 426.688 43.7582C432.836 42.4919 438.386 39.75 443.775 36.6345C447.099 34.7144 450.367 32.7084 453.881 31.1319C459.241 28.7262 462.55 29.8917 465.048 35.2411C466.706 38.7862 467.394 42.6712 468.783 46.3172C470.045 49.5858 472.26 51.278 475.7 51.5993C480.633 52.055 485.571 52.5257 490.493 53.0935C493.094 53.3451 495.641 53.9952 498.045 55.0211C500.898 56.2986 501.873 58.3831 500.88 61.3716C499.688 64.9391 497.119 67.5951 494.762 70.3856C494.123 71.1327 493.466 71.8798 492.861 72.6643C489.978 76.3999 489.985 78.828 492.861 82.5188C494.082 84.0728 495.397 85.5484 496.491 87.2145C501.283 94.5251 501.72 102.157 492.883 107.828C491.626 109.381 489.86 110.439 487.897 110.816C486.844 110.491 487.218 109.613 487.233 108.948C487.289 106.333 487.255 103.759 486.288 101.268C485.377 98.9069 484.122 98.1336 481.597 98.2793C479.871 98.3839 478.314 99.4374 476.529 99.09C475.726 96.8486 475.782 94.4765 475.371 92.1716C474.546 87.3154 473.403 82.5636 471.427 78.0324C470.837 76.7276 470.084 75.5026 469.186 74.3864C466.296 70.6509 463.27 69.9747 459.054 72.1003C457.558 72.8612 455.98 73.4502 454.352 73.856C451.013 74.6853 449.34 73.2433 449.579 69.7804C449.639 68.9138 449.904 68.0695 449.889 67.1917C449.866 65.7684 449.515 65.5405 448.182 66.1494C446.251 67.0422 445.131 68.6411 444.447 70.5761C443.271 73.8298 443.103 77.2628 442.733 80.6622C442.076 86.6392 440.548 92.2426 436.698 97.0354C435.577 98.4064 434.158 99.4038 433.023 100.711C432.761 101.294 433.359 102.205 432.365 102.512C431.065 102.382 429.76 102.703 428.668 103.42C426.871 104.529 424.946 105.416 422.935 106.061C421.72 106.514 420.541 107.056 419.406 107.682C418.804 107.342 418.435 108.429 417.807 107.947C416.186 107.876 414.718 108.593 413.161 108.836C412.261 108.974 412.31 109.744 412.16 110.375C411.742 111.077 410.991 111.014 410.341 111.122C408.1 111.496 406.584 112.639 405.983 114.892C405.822 115.482 405.654 116.109 404.963 116.348C401.923 115.855 399.488 114.047 396.989 112.482C392.784 109.841 389.214 106.539 387.122 101.862C384.919 96.9382 385.587 92.1828 387.694 87.4573C387.881 87.1247 388.153 86.8476 388.482 86.6541V86.6541Z" fill="#002158"></path><path d="M487.923 110.741C489.587 109.765 491.25 108.791 492.913 107.82C493.608 108.735 494.575 109.187 495.613 109.658C499.18 111.279 502.609 113.162 506.022 115.101C510.16 117.454 514.149 120.032 518.056 122.699C521.962 125.366 525.492 128.526 529.103 131.575C535.079 136.625 539.904 142.718 544.416 149.068C547.591 153.558 550.198 158.424 552.176 163.555C553.632 167.351 554.844 171.235 555.807 175.184C558.118 184.56 558.877 194.038 558.63 203.623C558.563 208.434 558.112 213.232 557.282 217.972C556.837 220.329 556.692 222.742 556.445 225.133C556.389 225.663 556.348 226.13 555.698 226.231C553.558 220.527 550.974 215.062 547.43 210.067C541.047 201.072 532.83 194.082 523.613 188.177C522.776 187.642 521.891 187.179 521.092 186.596C514.832 182.028 507.568 180.619 500.091 179.939C495.344 179.506 490.586 179.192 485.836 178.819C484.913 179.491 484.162 178.841 483.453 178.445C475.277 173.727 469.212 167.19 466.086 158.142C465.097 155.36 464.451 152.467 464.163 149.528C464.111 148.579 464.626 147.91 465.224 147.253C469.952 142.023 473.399 136.113 474.848 129.143C475.012 128.347 475.18 127.555 475.968 127.114C481.145 123.379 485.458 119.016 486.799 112.437C486.952 111.754 486.881 110.857 487.923 110.741Z" fill="#FEEDCE"></path><path d="M417.245 213.367C419.455 213.809 422.685 214.991 424.802 217.523C428.018 221.375 431.753 224.789 435.08 228.555C437.288 231.054 440.036 232.6 442.923 234.057C460.103 242.729 477.273 251.408 494.433 260.094C504.738 265.324 515.161 270.289 525.297 275.81C535.594 281.413 542.784 289.755 545.387 301.518C545.912 304.012 546.136 306.559 546.055 309.105C546.055 309.696 545.745 310.346 546.291 310.872C545.305 313.663 544.834 316.636 543.303 319.229C542.967 319.8 542.843 320.529 542.201 320.899C538.093 325.497 533.152 325.576 527.818 323.6C519.281 320.435 511.288 316.173 503.445 311.597C495.285 306.838 487.266 301.884 479.823 296.023C475.509 292.635 471.707 288.709 467.984 284.701C460.619 276.766 454.027 268.197 447.484 259.594C442.711 253.314 438.173 246.859 433.59 240.438C432.615 239.067 431.928 237.374 430.229 236.597C426.868 236.351 423.45 236.351 420.145 235.574C419.245 235.365 418.337 235.174 417.46 234.883C416.788 234.748 416.481 234.173 416.074 233.721C412.601 231.726 409.083 229.802 405.673 227.71C403.705 226.504 401.916 226.649 400.071 227.751C399.088 228.655 397.774 228.644 396.597 228.917C394.017 229.515 391.499 230.49 388.795 230.411C387.948 230.389 386.894 230.505 386.626 229.436C386.372 228.435 387.208 227.893 387.951 227.423C391.715 225.064 395.808 223.278 400.097 222.122C403.126 221.33 405.863 219.836 408.687 218.487L403.253 219.384L403.002 219.01C402.659 216.019 407.01 216.201 408.978 214.729C411.271 213.003 413.536 213.644 415.919 213.367C416.062 213.263 416.361 213.367 416.361 213.367C416.538 213.369 417.245 213.367 417.245 213.367Z" fill="#FEB789"></path><path d="M388.483 86.6543C386.989 90.2853 385.756 93.9499 386.462 97.9955C387.351 103.076 390.369 106.744 394.204 109.871C397.495 112.553 401.207 114.544 405.084 116.248C405.797 116.67 405.737 117.398 405.76 118.071C405.958 124.421 409.494 128.65 414.451 132.019C416.518 133.403 418.773 134.482 421.147 135.224C422.693 135.676 423.575 136.801 424.336 138.153C427.802 144.309 431.843 149.999 437.681 154.19C438.428 154.724 438.943 155.404 438.958 156.349C439.066 162.438 439.197 168.531 436.613 174.28C436.056 175.664 435.245 176.931 434.222 178.016C434.137 178.107 434.024 178.166 433.9 178.185C433.777 178.203 433.651 178.179 433.543 178.117C430.76 178.49 427.963 178.251 425.173 178.315C422.499 178.374 419.843 178.528 417.259 179.293C416.482 178.546 416.691 177.56 416.691 176.652C416.691 168.385 416.691 160.122 416.691 151.855C416.697 150.426 416.421 149.009 415.878 147.686C415.335 146.364 414.536 145.162 413.527 144.149C412.518 143.136 411.319 142.333 409.999 141.784C408.679 141.236 407.264 140.954 405.834 140.955C403.657 140.955 401.483 140.955 399.306 140.955C363.253 140.955 327.199 140.955 291.143 140.955C290.12 140.955 289.011 141.239 288.118 140.413C290.803 137.854 293.993 135.931 296.768 133.484C299.942 130.693 303.319 128.112 306.691 125.639C311.3 122.236 315.621 118.433 320.51 115.362C322.979 113.808 325.619 112.374 327.688 110.215C328.274 109.591 329.055 109.699 329.783 109.692C332.827 109.669 335.871 109.714 338.915 109.669C339.595 109.648 340.273 109.762 340.909 110.004C341.545 110.246 342.126 110.613 342.62 111.081C347.15 115.146 351.759 119.12 356.244 123.233C357.196 124.104 358.111 125.041 359.262 125.691C359.859 125.06 359.635 124.343 359.635 123.696C359.661 119.909 359.635 116.121 359.661 112.333C359.684 110.073 359.979 109.785 362.276 109.692C363.455 109.635 364.625 109.458 365.768 109.161C370.197 108.041 372.953 104.514 373.08 99.7699C373.151 97.0392 373.08 94.3047 373.107 91.574C373.107 90.7858 372.961 89.9378 373.648 89.299C378.548 88.3278 383.388 86.7626 388.483 86.6543Z" fill="#FEEDCE"></path><path d="M373.602 89.2616C373.602 92.5564 373.452 95.855 373.572 99.146C373.807 105.747 368.971 110.065 362.614 110.121C360.19 110.144 360.19 110.144 360.187 112.519C360.187 116.871 360.187 121.223 360.164 125.594C360.164 126.001 360.366 126.535 359.869 126.767C359.372 126.999 359.122 126.483 358.808 126.214C353.117 121.154 347.431 116.086 341.752 111.01C341.472 110.727 341.137 110.504 340.768 110.354C340.398 110.204 340.003 110.131 339.604 110.14C335.627 110.196 331.645 110.185 327.653 110.196C321.304 110.196 314.955 110.196 308.628 110.121C305.681 110.084 302.821 109.587 300.494 107.506C299.424 106.604 298.565 105.479 297.974 104.21C297.384 102.941 297.078 101.558 297.076 100.158C297.028 89.03 297.05 77.9017 297.076 66.7771C297.076 61.2447 301.82 56.7769 307.16 56.8105C325.939 56.9263 344.717 56.8516 363.496 56.8553C369.124 56.8553 373.471 61.2036 373.508 66.8966C373.572 74.3454 373.576 81.8054 373.602 89.2616Z" fill="#FEC55A"></path><path d="M50.0437 379.596C46.5368 378.718 42.9962 377.941 39.7881 376.171C37.8534 375.102 35.9487 373.996 34.6826 372.091C35.2017 371.531 35.9002 371.523 36.5836 371.49C37.3903 371.449 38.197 371.467 39.0075 371.467C181.676 371.467 324.335 371.467 466.986 371.467C468.342 371.467 469.727 371.266 471.042 371.796C472.039 372.648 471.247 373.201 470.668 373.72C468.43 375.663 465.842 377.161 463.042 378.132C462.175 378.453 461.309 378.77 460.45 379.107C459.21 379.454 457.921 379.349 456.659 379.48C451.094 380.201 445.5 379.902 439.92 379.902C317.044 379.917 194.17 379.917 71.2983 379.902C64.206 379.921 57.1174 380.246 50.0437 379.596Z" fill="#00B2F0"></path><path d="M430.733 236.257C432.283 237.004 432.847 238.596 433.721 239.855C440.922 250.057 448.287 260.135 456.022 269.938C461.803 277.274 467.872 284.391 474.636 290.857C479.282 295.313 484.51 299.019 489.832 302.62C497.114 307.494 504.639 311.993 512.379 316.098C518.247 319.251 524.248 322.288 530.795 323.943C534.904 324.985 538.478 324.063 541.454 321.003C541.69 320.764 541.869 320.529 542.201 320.869C540.175 324.709 537 326.853 532.678 327.301C532.005 327.369 531.348 327.54 530.68 327.675C529.746 328.314 528.689 328.254 527.651 328.123C523.742 327.689 519.872 326.963 516.073 325.949C509.907 324.227 503.748 322.445 497.914 319.793C491.39 316.831 485.814 312.449 480.656 307.562C470.199 297.652 461.385 286.352 453.22 274.506C445.99 264.009 439.402 253.124 433.124 242.044C432.298 240.587 431.596 239.055 430.782 237.595C430.55 237.191 430.24 236.736 430.733 236.257Z" fill="#FE9663"></path><path d="M515.792 325.486C519.471 326.147 523.079 327.186 526.829 327.458C528.113 327.552 529.398 327.615 530.683 327.694C528.973 334.004 527.602 340.401 526.575 346.857C525.828 351.478 525.081 356.11 524.457 360.75C524.065 363.623 523.841 366.518 523.587 369.409C523.307 372.607 523.068 375.808 522.84 379.01C522.791 379.626 522.504 379.906 521.902 379.906H520.409C500.136 379.906 479.861 379.906 459.584 379.906C458.592 379.898 457.606 379.756 456.652 379.484C457.847 378.886 459.151 378.838 460.443 378.737C461.881 378.345 463.368 378.161 464.858 378.191C478.532 378.191 492.205 378.191 505.877 378.191C508.778 378.191 508.846 378.087 509.174 375.203C510.545 363.294 512.073 351.403 513.488 339.502C513.929 335.8 514.362 332.098 514.874 328.407C515.023 327.428 514.993 326.323 515.792 325.486Z" fill="#FEEDCE"></path><path d="M88.8262 359.364C88.8262 338.539 88.8336 317.716 88.8486 296.894C88.8486 267.614 88.8486 238.336 88.8486 209.059C89.4648 208.364 89.1884 207.516 89.1884 206.742C89.2059 189.379 89.2059 172.015 89.1884 154.65C89.1309 152.363 89.4244 150.082 90.0586 147.884C90.6674 145.975 91.7206 144.029 94.0063 143.402C90.6039 146.39 89.8682 150.219 89.8756 154.608C89.9653 222.845 89.9889 291.092 89.9466 359.349L89.7673 359.551C89.6135 359.635 89.4349 359.663 89.2628 359.629C89.0907 359.594 88.9361 359.501 88.8262 359.364Z" fill="#C7D6D8"></path><path d="M400.074 222.129C398.057 223.355 395.805 224.057 393.65 224.972C391.657 225.802 389.739 226.802 387.918 227.961C387.372 228.312 386.76 228.689 386.887 229.365C387.047 230.209 387.873 229.937 388.44 229.937C392.078 229.937 395.447 228.57 398.954 227.893C399.327 227.826 399.701 227.8 400.048 227.755C400.048 266.404 400.048 305.051 400.048 343.697C399.85 343.847 399.605 343.922 399.357 343.91C386.073 343.876 372.784 343.985 359.5 343.854C360.452 330.264 359.701 316.655 359.903 303.057C359.862 302.563 359.91 302.066 360.045 301.589C360.87 300.823 361.912 301.007 362.883 301.007C368.788 300.984 374.696 301.006 380.605 300.988C382.868 300.988 383.727 299.643 382.973 297.454C382.901 297.217 382.758 297.008 382.562 296.856C382.367 296.705 382.129 296.617 381.882 296.606C381.266 296.516 380.638 296.576 380.015 296.505C379.664 296.47 379.319 296.398 378.984 296.288C376.982 295.541 376.743 293.86 376.743 292.034C376.743 284.341 376.743 276.649 376.743 268.959C376.743 266.975 376.597 264.984 376.907 263.012C377.031 262.224 376.829 261.816 375.974 261.861C375.6 261.861 375.227 261.861 374.853 261.861C365.3 261.861 355.746 261.884 346.189 261.831C345.203 261.831 343.881 262.358 343.35 260.849C344.262 260.102 345.36 260.307 346.394 260.303C357.32 260.289 368.245 260.289 379.171 260.303C379.731 260.303 380.291 260.303 380.848 260.303C382.827 260.236 383.088 259.963 383.066 257.991C383.066 256.176 382.831 255.929 380.825 255.925C369.341 255.899 357.856 255.925 346.368 255.925C345.322 255.925 344.251 256.056 343.25 255.604C342.589 254.629 343.496 254.625 343.997 254.524C345.095 254.3 346.237 254.424 347.358 254.409C351.5 254.341 353.83 252.35 353.95 248.185C354.166 240.426 354.107 232.656 353.95 224.894C353.909 222.585 352.736 220.785 350.618 219.641C350.092 219.361 349.195 219.268 349.386 218.3C350.208 217.688 351.167 217.841 352.086 217.837C357.244 217.815 362.402 217.863 367.556 217.811C369.837 217.789 370.345 217.157 370.435 214.886C370.495 213.373 370.039 212.488 368.373 212.562C367.997 212.563 367.629 212.451 367.317 212.241C366.745 211.737 366.801 211.02 366.659 210.373C366.181 208.196 365.994 205.962 365.479 203.803C364.818 201.034 365.774 198.573 366.514 196.032C367.335 194.579 368.99 195.577 370.043 194.822C370.823 193.548 370.588 192.177 370.297 190.877C370.006 189.577 368.863 189.51 367.772 189.465C340.277 189.465 312.785 189.398 285.294 189.465C240.947 189.592 196.604 189.465 152.257 189.529C147.693 189.529 147.693 189.529 147.693 194.161C147.693 200.511 147.693 206.862 147.693 213.186C147.658 214.864 147.744 216.542 147.951 218.207C147.331 219.167 146.323 218.928 145.438 218.954C142.356 218.999 139.272 218.976 136.187 218.954C134.932 218.954 134.177 219.328 134.237 220.755C134.278 221.718 134.644 222.249 135.653 222.297C136.272 222.291 136.889 222.372 137.486 222.537C139.242 223.082 139.843 224.348 139.839 226.089C139.839 233.026 139.873 239.959 139.809 246.896C139.809 248.536 139.567 250.157 137.718 250.875C136.672 251.222 135.331 250.565 134.528 251.416C133.725 252.268 134.42 253.583 133.961 254.622C133.303 255.809 131.963 255.234 131.048 255.765C127.085 257.192 125.262 259.713 125.255 263.905C125.255 273.617 125.255 283.303 125.255 293.001C125.206 294.375 125.461 295.742 126.002 297.006C127.175 299.535 129.068 300.969 131.951 301.055C133.737 301.107 135.559 300.681 137.3 301.429C137.89 302.575 137.146 303.67 137.158 304.821C137.158 306.292 137.456 307.234 139.186 307.062C139.743 306.998 140.306 307.13 140.777 307.435C140.897 307.535 140.994 307.659 141.064 307.798C141.133 307.938 141.173 308.09 141.18 308.246C141.113 309.759 141.822 310.932 142.76 312.019C142.562 313.245 142.469 314.486 142.483 315.728C142.503 321.747 142.109 327.759 141.303 333.723C140.96 336.338 141.083 336.457 143.761 336.457C167.165 336.457 190.57 336.464 213.974 336.476C215.188 336.476 216.477 336.173 217.567 337.033C217.567 337.974 216.82 337.866 216.264 337.959C215.396 338.054 214.521 338.078 213.649 338.03H140.971C136.937 338.03 136.261 339.072 137.886 342.785C138.035 343.125 138.259 343.45 138.08 343.843C134.928 344.089 131.772 343.929 128.62 343.943C121.743 343.973 114.869 343.973 107.997 343.943C107.347 343.943 106.633 344.216 106.043 343.689C106.043 343.006 106.006 342.322 106.006 341.639C106.006 280.464 105.992 219.292 105.965 158.12C105.965 156.495 106.469 156.226 107.952 156.226C204.645 156.261 301.337 156.261 398.028 156.226C399.831 156.226 400.104 156.797 400.1 158.411C400.053 179.629 400.044 200.869 400.074 222.129Z" fill="#E1F3FC"></path><path d="M89.9802 359.349C91.6609 359.349 93.3415 359.386 95.0147 359.386H412.896C413.953 359.386 415.006 359.349 416.063 359.327L416.119 359.7C415.338 360.559 414.289 360.365 413.322 360.369C407.477 360.395 401.632 360.369 395.791 360.369H286.87C284.255 360.369 284.255 360.369 283.333 362.741C283.025 363.594 282.503 364.354 281.817 364.946C281.131 365.539 280.304 365.945 279.415 366.125C278.555 366.297 277.677 366.368 276.801 366.335H229.257C228.884 366.335 228.51 366.335 228.137 366.312C225.235 366.144 223.45 364.844 222.725 362.061C222.389 360.776 221.739 360.32 220.514 360.369C219.767 360.395 219.02 360.369 218.273 360.369H94.2491C93.3176 360.408 92.3846 360.389 91.4554 360.313C90.8093 360.231 90.0288 360.283 89.8682 359.357L89.9802 359.349Z" fill="#00B2F1"></path><path d="M416.07 233.721L417.094 234.39C417.736 234.838 417.781 235.533 417.822 236.216C417.867 236.963 417.848 237.711 417.848 238.458C417.848 277.42 417.848 316.381 417.848 355.341C417.848 356.518 417.949 357.705 417.676 358.871C417.333 359.502 417.086 360.425 416.182 359.379L416.078 359.334C416.078 355.542 416.119 351.755 416.119 347.967C416.119 310.441 416.119 272.919 416.119 235.398C416.111 234.838 416.085 234.278 416.07 233.721Z" fill="#C3D0D6"></path><path d="M106.044 343.637C107.142 343.973 108.259 343.712 109.364 343.712C118.96 343.712 128.553 343.701 138.144 343.678C138.634 343.204 139.265 343.174 139.881 343.137C140.564 343.099 141.252 343.114 141.935 343.114C213.117 343.114 284.297 343.114 355.474 343.114C356.751 343.114 358.089 342.793 359.265 343.667H400.037C399.526 344.373 398.775 344.041 398.14 344.041C312.211 344.061 226.28 344.061 140.348 344.041C129.592 344.041 118.836 344.041 108.079 344.041C107.396 344.078 106.567 344.478 106.044 343.637Z" fill="#01A0ED"></path><path d="M416.168 359.375C416.305 359.498 416.482 359.566 416.666 359.566C416.85 359.566 417.028 359.498 417.165 359.375C417.96 358.748 418.909 358.789 419.839 358.789C436.366 358.789 452.893 358.789 469.418 358.789C472.271 358.789 472.678 359.211 472.701 362.005C472.723 364.863 472.783 367.721 472.652 370.575C472.619 371.322 472.951 372.614 471.371 372.405C470.729 371.822 469.945 372.095 469.231 372.095C341.422 372.08 213.614 372.073 85.8048 372.073C68.7668 372.073 51.7263 372.073 34.6833 372.073C33.66 371.949 34.0596 371.128 34.0522 370.616C34.0036 367.448 34.082 364.265 33.9887 361.109C33.9476 359.67 34.5041 359.364 35.856 359.368C53.0833 359.42 70.3105 359.439 87.5378 359.424C87.9748 359.424 88.408 359.372 88.8412 359.345H89.8758C90.5517 360.025 91.4107 359.719 92.1801 359.719C134.893 359.736 177.608 359.736 220.324 359.719C222.053 359.719 223.312 359.551 223.312 362.072C223.33 363.94 225.272 365.726 228.167 365.718C237.556 365.699 246.945 365.699 256.334 365.718H277.596C281.103 365.718 282.933 364.112 283.154 360.657C283.202 359.883 283.348 359.689 284.046 359.745C284.476 359.779 284.913 359.745 285.35 359.745C328.063 359.745 370.778 359.745 413.494 359.745C414.386 359.745 415.368 360.115 416.168 359.375Z" fill="#5CC8FB"></path><path d="M433.542 178.109C436.451 174.975 437.549 171.071 438.105 166.988C438.508 163.605 438.641 160.195 438.505 156.79C438.528 156.333 438.429 155.878 438.216 155.473C438.003 155.069 437.685 154.728 437.295 154.489C432.649 151.254 429.176 146.932 426.177 142.199C425.217 140.705 424.287 139.147 423.473 137.555C422.905 136.435 421.889 136.084 420.918 135.587C421.385 134.765 421.023 134.051 420.642 133.319C417.422 127.096 414.998 120.54 412.638 113.961C412.201 112.732 411.891 111.492 412.055 110.17C411.413 109.101 411.622 108.481 412.948 108.354C414.595 108.197 416.115 107.323 417.803 107.488C418.087 108.425 417.504 109.172 417.232 109.975C414.244 118.627 420.22 127.634 429.362 127.884C436.432 128.078 442.434 123.259 443.181 115.288C443.218 114.914 443.23 114.54 443.23 114.167C443.23 112.998 443.812 112.321 444.959 112.097C446.105 111.873 446.729 112.471 447.088 113.438C447.853 115.422 449.112 117.178 450.744 118.541C454.568 121.903 459.013 122.86 463.778 121.238C468.544 119.617 471.576 116.169 472.678 111.1C473.985 105.056 470.299 97.6518 463.45 95.8437C453.616 93.2288 446.154 100.435 446.43 108.123C446.453 108.806 446.43 109.49 446.393 110.173C446.326 111.339 445.564 111.731 444.559 111.922C443.554 112.112 443.065 111.623 442.692 110.782C442.318 109.942 442.046 109.03 441.597 108.212C440.078 105.388 437.574 103.221 434.561 102.123C433.669 101.85 432.846 101.388 432.148 100.767C435.009 98.2681 437.579 95.5374 439.245 92.0633C441.112 88.1334 441.859 83.9421 442.348 79.6798C442.722 76.4261 442.882 73.1313 444.085 70.012C444.966 67.7258 446.606 66.2242 448.768 65.2305C449.889 64.715 450.598 64.9466 450.475 66.3512C450.344 67.894 450.124 69.433 450.102 70.9758C450.057 72.9258 450.908 73.7103 452.835 73.5908C454.86 73.475 456.716 72.7204 458.438 71.7641C463.86 68.7756 467.644 70.789 470.389 75.2419C473.929 80.9611 475.121 87.4312 476.103 93.9498C476.342 95.5412 476.648 97.1288 476.529 98.7538C477.107 99.4159 477.41 100.274 477.377 101.152C477.455 109.598 477.888 118.063 476.394 126.45C476.338 126.756 476.226 127.047 476.17 127.353C474.949 128.216 475.098 129.688 474.837 130.861C473.343 137.462 469.705 142.815 465.343 147.754C464.902 148.25 464.536 148.65 464.566 149.319C461.347 152.162 457.971 154.721 453.892 156.301C450.352 157.693 446.489 158.046 442.755 157.317C442.382 157.25 442.042 157.078 441.68 157.294C444.145 164.018 449.086 168.176 454.96 166.663C458.075 165.864 460.398 163.806 462.665 161.654C463.89 160.492 464.719 158.886 466.437 158.292C468.518 163.728 471.82 168.613 476.088 172.569C478.449 174.742 481.062 176.623 483.871 178.173C484.436 178.559 485.099 178.777 485.784 178.8C487.823 180.53 487.834 180.534 486.598 183.227C482.904 191.277 478.038 198.438 470.105 202.816C461.388 207.624 452.219 208.711 442.998 204.262C434.856 200.332 429.979 190.515 431.263 181.804C431.577 180.134 432.993 179.45 433.542 178.109Z" fill="#FEB789"></path><path d="M419.159 107.652C419.894 106.844 420.837 106.255 421.885 105.949C424.205 105.16 426.528 104.286 428.578 102.934C429.863 102.09 431.103 101.783 432.548 102.22C434.688 101.809 436.249 103.095 437.777 104.2C442.61 107.73 443.603 113.857 442.333 118.231C441.568 120.884 439.972 123.221 437.779 124.898C435.587 126.575 432.914 127.504 430.154 127.548C424.253 127.57 419.465 124.186 417.545 118.84C416.644 116.375 416.514 113.693 417.172 111.152C417.504 109.804 418.053 108.567 419.159 107.652Z" fill="#FEB789"></path><path d="M476.233 127.376C475.229 125.956 476.132 124.466 476.308 123.117C477.365 115.004 477.081 106.897 476.592 98.7763C477.447 99.0527 478.134 98.5111 478.881 98.2907C484.069 96.7404 486.25 98.0105 487.426 103.252C487.923 105.456 487.755 107.682 487.706 109.905C487.681 110.05 487.687 110.2 487.725 110.343C487.762 110.486 487.83 110.619 487.923 110.734C487.027 111.832 487.116 113.255 486.713 114.518C484.905 120.196 481.096 124.19 476.233 127.376Z" fill="#FE9663"></path><path d="M412.055 110.17C414.464 118.41 417.637 126.406 421.534 134.055C421.907 134.802 422.434 135.606 420.917 135.587C415.199 133.827 410.598 130.559 407.297 125.534C405.848 123.327 405.601 120.786 405.325 118.261C405.25 117.589 405.388 116.89 405.078 116.248C405.319 115.309 405.629 114.388 406.004 113.495C406.931 111.627 408.593 110.82 410.598 110.584C411.095 110.525 411.733 110.876 412.055 110.17Z" fill="#FE9663"></path><path d="M419.159 107.652C417.318 111.19 416.545 114.806 417.975 118.728C419.007 121.549 421.001 123.915 423.606 125.411C426.211 126.906 429.26 127.434 432.216 126.902C438.031 125.856 442.55 120.383 442.3 114.395C442.072 108.601 439.118 104.099 432.533 102.22C433.06 101.574 432.193 101.279 432.16 100.767C437.669 102.071 441.497 105.25 443.17 110.756C443.484 111.795 444.096 111.436 444.757 111.376C445.575 111.298 445.919 111.059 445.829 110.103C445.456 106.24 446.359 102.691 448.914 99.684C452.503 95.4553 457.172 93.9872 462.479 95.0481C467.707 96.0903 471.248 99.3777 472.794 104.48C475.005 111.78 471.218 119.21 464.234 121.664C457.097 124.167 449.564 120.749 446.658 113.607C446.285 112.654 445.911 112.463 444.918 112.594C443.749 112.751 443.562 113.341 443.599 114.324C443.947 123.76 434.662 130.525 425.635 127.772C417.938 125.422 413.882 116.741 417.068 108.982C417.277 108.47 417.553 107.988 417.796 107.488C418.203 108.067 418.763 107.196 419.159 107.652Z" fill="#051851"></path><path d="M466.501 158.295C463.887 161.164 461.306 164.041 457.87 166.058C455.761 167.304 453.269 167.734 450.864 167.267C448.459 166.799 446.309 165.467 444.821 163.521C443.488 161.829 442.295 160.032 441.254 158.146C441.03 157.724 440.597 157.272 440.88 156.779C441.254 156.181 441.754 156.644 442.203 156.749C448.817 158.295 454.587 156.315 459.935 152.528C461.233 151.678 462.423 150.675 463.48 149.539C463.54 149.45 463.617 149.373 463.708 149.314C463.798 149.255 463.899 149.215 464.005 149.195C464.111 149.176 464.22 149.178 464.326 149.201C464.431 149.224 464.531 149.268 464.619 149.33C464.891 152.404 465.754 155.337 466.501 158.295Z" fill="#FE9663"></path><path d="M470.813 372.678C471.81 372.554 471.48 371.771 471.484 371.223C471.51 367.92 471.42 364.617 471.536 361.317C471.589 359.817 471.031 359.596 469.7 359.6C451.943 359.63 433.673 359.698 415.918 359.668C415.918 359.17 415.918 358.845 415.918 358.342C415.918 317.398 415.9 276.412 415.918 235.467C415.918 235.092 415.937 234.074 415.918 233.699C420.231 234.625 425.004 235.817 429.448 235.641C429.639 235.641 429.845 235.9 430.044 236.039C432.292 240.913 435.038 245.491 437.743 250.099C446.934 265.746 456.875 280.89 468.644 294.748C476.003 303.413 483.867 311.554 493.77 317.41C499.732 320.935 506.367 322.712 512.879 324.782C513.711 325.044 514.535 325.318 515.367 325.588L510.309 367.069C509.874 370.65 509.402 374.223 509.027 377.807C508.919 378.842 508.544 379.116 507.529 379.116C491.637 379.071 475.747 379.054 459.857 379.064C461.866 377.822 464.264 377.481 466.265 376.184C467.883 375.127 469.513 374.11 470.813 372.678Z" fill="#081F59"></path><path d="M335.313 96.7777C332.953 96.7777 330.592 96.7777 328.217 96.7777C327.676 96.7777 327.13 96.8486 326.914 96.0716C326.066 93.0159 327.369 89.1457 330.211 87.6515C333.502 85.9181 337.087 86.0078 340.374 87.6291C343.145 88.9963 344.482 93.0271 343.668 96.053C343.429 96.9495 342.779 96.7739 342.196 96.7777C339.914 96.7889 337.614 96.7814 335.313 96.7777Z" fill="#FEFEFE"></path><path d="M315.545 96.7814C313.249 96.7814 310.948 96.7291 308.651 96.7814C307.411 96.8225 307.112 96.3481 307.064 95.1527C306.952 92.3024 307.213 89.6763 309.798 87.872C309.951 87.7636 310.067 87.5918 310.231 87.5245C313.648 86.1386 317.174 85.9556 320.457 87.588C323.74 89.2205 323.997 92.5303 323.867 95.8064C323.829 96.8524 323.146 96.7702 322.44 96.7664C320.143 96.7664 317.842 96.7664 315.545 96.7664V96.7814Z" fill="#FEFEFE"></path><path d="M355.172 96.7627H348.288C347.732 96.7627 347.224 96.8112 347.015 96.0156C346.1 92.59 347.366 89.1832 350.268 87.4424C353.319 85.612 359.709 86.4973 362.002 89.0076C363.896 91.0809 363.601 93.5912 363.526 96.053C363.504 96.8486 362.779 96.744 362.245 96.744L355.172 96.7627Z" fill="#FEFEFE"></path><path d="M315.455 73.3107C318.212 73.3406 320.594 75.7351 320.52 78.4023C320.49 79.7463 319.945 81.0272 318.996 81.9795C318.048 82.9318 316.769 83.4821 315.425 83.5164C312.523 83.5388 310.357 81.3348 310.32 78.3201C310.275 75.6454 312.699 73.2808 315.455 73.3107Z" fill="#FDFEFD"></path><path d="M360.191 78.4545C360.564 81.2861 357.666 83.4901 355.16 83.5462C352.37 83.6134 350.077 81.0919 350.144 78.1818C350.208 75.5407 352.568 73.2994 355.283 73.3255C358.151 73.3143 360.217 75.481 360.191 78.4545Z" fill="#FEFEFD"></path><path d="M335.362 83.3931C332.453 83.3931 330.287 81.2824 330.276 78.4322C330.263 77.0947 330.783 75.807 331.719 74.8525C332.656 73.898 333.934 73.3548 335.271 73.3424C336.608 73.33 337.895 73.8494 338.85 74.7864C339.804 75.7234 340.347 77.0013 340.359 78.3388C340.379 79.003 340.263 79.6643 340.02 80.2825C339.776 80.9008 339.41 81.4631 338.942 81.9356C338.475 82.4081 337.917 82.7809 337.302 83.0314C336.686 83.2819 336.027 83.405 335.362 83.3931V83.3931Z" fill="#FEFEFD"></path><path d="M359.264 343.678C342.42 343.678 325.578 343.678 308.737 343.678C251.876 343.678 195.012 343.678 138.144 343.678C137.023 342.83 136.134 339.009 136.777 337.75C136.846 337.615 136.955 337.505 137.088 337.434C137.221 337.362 137.373 337.333 137.524 337.35H139.017C164.511 337.35 190.003 337.35 215.494 337.35C216.193 337.35 216.988 337.664 217.604 337.059C217.578 336.943 217.548 336.823 217.519 336.708C217.28 329.072 217.474 321.44 217.421 313.805C217.421 312.501 217.339 311.19 217.328 309.897C217.328 308.747 216.828 308.175 215.651 308.183C214.904 308.183 214.157 308.164 213.41 308.164C190.312 308.164 167.212 308.164 144.112 308.164C142.954 308.164 141.733 308.414 140.698 307.604C139.469 306.886 137.277 308.795 136.795 306.423C136.485 304.929 136.422 303.211 137.21 301.694C137.751 300.857 138.64 300.779 139.499 300.678C140.429 300.604 141.361 300.583 142.293 300.614H250.949C251.632 300.614 252.315 300.614 252.995 300.67C254.175 300.57 255.356 300.614 256.532 300.614C289.634 300.614 322.736 300.614 355.836 300.614C357.33 300.614 358.992 300.241 360.149 301.701C360.511 302.28 360.677 302.96 360.624 303.64C360.604 316.219 360.604 328.796 360.624 341.37C360.646 342.505 360.303 343.249 359.264 343.678Z" fill="#FE3700"></path><path d="M343.403 260.946C343.982 261.506 344.703 261.249 345.357 261.249C355.489 261.249 365.621 261.249 375.754 261.249C376.422 261.249 377.113 261.092 377.842 261.45C377.072 263.348 377.3 265.346 377.296 267.319C377.296 275.769 377.319 284.222 377.27 292.672C377.27 294.226 377.797 295.287 379.19 295.915C378.443 296.703 377.449 296.468 376.546 296.468C368.277 296.49 360.012 296.468 351.743 296.468C319.422 296.468 287.1 296.468 254.777 296.468C252.241 296.468 249.687 296.886 247.162 296.281C245.698 295.5 245.037 294.215 245.022 292.616C244.952 283.175 244.952 273.733 245.022 264.289C245.022 262.519 245.769 261.174 247.513 260.505C249.791 260.005 252.092 260.356 254.381 260.356C276.917 260.341 299.45 260.341 321.981 260.356C323.034 260.356 324.091 260.326 325.14 260.393C326.825 260.628 326.574 261.947 326.66 263.098C326.716 263.819 326.317 264.809 326.959 265.197C327.601 265.586 328.244 264.704 328.856 264.345C330.19 263.565 331.53 262.791 332.826 261.951C333.276 261.618 333.821 261.439 334.38 261.439C334.939 261.439 335.484 261.618 335.934 261.951C337.551 262.974 339.243 263.882 340.823 264.969C341.719 265.589 342.051 265.462 342.141 264.304C342.231 263.146 341.536 261.689 342.888 260.726C342.985 260.717 343.083 260.732 343.173 260.771C343.263 260.809 343.342 260.869 343.403 260.946V260.946Z" fill="#A7E3F9"></path><path d="M147.764 218.327C147.017 217.807 146.887 217.064 146.887 216.209C146.902 207.818 146.902 199.428 146.887 191.038C146.887 189.544 147.537 188.856 149.016 188.89C149.822 188.89 150.629 188.89 151.439 188.89H366.271C366.954 188.89 367.638 188.935 368.317 188.957C368.134 189.779 367.421 189.704 366.824 189.79C365.954 189.866 365.081 189.884 364.209 189.846H287.646C284.117 189.846 283.863 190.078 283.848 193.646C283.822 200.474 283.886 207.303 283.807 214.131C283.807 215.674 284.472 216.982 284.707 218.42C284.027 218.988 283.213 218.943 282.399 218.943C269.865 218.943 257.335 219.006 244.801 218.913C243.625 219.021 242.444 218.954 241.264 218.954C211.279 218.954 181.293 218.954 151.305 218.954C150.125 218.965 148.821 219.287 147.764 218.327Z" fill="#0061FE"></path><path d="M137.259 250.498C138.954 250.202 139.167 248.798 139.178 247.539C139.249 240.124 139.178 232.705 139.238 225.29C139.238 223.87 138.215 223.478 137.345 222.854C138.346 221.961 139.586 222.245 140.732 222.241C162.13 222.221 183.525 222.221 204.918 222.241C219.222 222.241 233.526 222.141 247.83 222.324C248.693 222.324 249.575 222.226 250.407 222.589C251.61 223.373 251.744 224.621 251.752 225.88C251.789 233.202 251.804 240.527 251.752 247.849C251.752 249.848 251.685 249.855 253.724 249.855H321.891C322.881 249.855 323.885 249.758 324.845 250.09C325.219 250.214 325.54 250.4 325.435 250.89C324.763 251.48 323.941 251.431 323.131 251.431C297.04 251.431 270.945 251.499 244.85 251.398C243.61 251.51 242.366 251.439 241.115 251.439C207.674 251.439 174.234 251.431 140.796 251.416C139.589 251.409 138.133 251.947 137.259 250.498Z" fill="#FEFEFE"></path><path d="M217.604 337.036L142.815 337.014C140.011 337.014 140.201 337.036 140.545 334.149C140.888 331.261 141.292 328.403 141.49 325.501C141.762 321.392 141.822 317.327 141.796 313.237C141.797 312.931 141.867 312.629 142.001 312.355C142.134 312.08 142.329 311.839 142.569 311.649C143.264 310.947 144.167 311.04 145.026 311.037C168.401 311.022 191.778 311.022 215.158 311.037C217.63 311.037 217.75 311.212 217.75 313.704C217.75 320.854 217.75 328.002 217.75 335.15C217.817 335.774 217.78 336.405 217.641 337.018L217.604 337.036Z" fill="#FEFEFE"></path><path d="M325.846 260.834C303.669 260.834 281.492 260.848 259.315 260.875C255.341 260.875 251.367 260.916 247.393 260.935C246.049 261.536 244.618 261.51 243.184 261.51H135.201C130.155 261.51 130.121 261.544 130.121 266.613C130.121 274.816 130.121 283.021 130.121 291.227C130.121 295.007 130.473 295.362 134.301 295.362C170.605 295.362 206.911 295.362 243.218 295.362C244.51 295.362 245.832 295.175 247.027 295.945C249.761 295.945 252.491 295.986 255.244 295.986H377.718C378.215 295.986 378.711 295.949 379.212 295.93L379.94 296.031C379.716 296.935 378.928 296.823 378.286 296.897C377.416 296.963 376.543 296.978 375.671 296.942H256.652C253.843 296.942 253.317 296.961 253.492 299.841C253.524 300.344 253.364 300.841 253.044 301.231C252.237 301.268 251.434 301.339 250.631 301.339C213.874 301.339 177.115 301.323 140.355 301.29C139.299 301.232 138.241 301.359 137.229 301.664C135.552 301.664 133.867 301.686 132.205 301.664C128.015 301.593 124.699 298.492 124.669 294.324C124.587 283.778 124.598 273.229 124.646 262.683C124.646 259.138 127.399 256.09 131.025 255.253C133.607 254.951 136.202 254.789 138.801 254.767C175.9 254.795 212.998 254.803 250.097 254.793C251.139 254.793 252.215 254.595 253.212 255.111C253.585 256.097 253.503 257.151 253.529 258.163C253.559 259.575 254.205 260.031 255.494 259.949C256.05 259.911 256.614 259.949 257.171 259.949C278.852 259.949 300.53 259.949 322.204 259.949C323.325 259.949 324.445 259.792 325.517 260.255C325.629 260.3 325.723 260.382 325.783 260.487C325.842 260.592 325.865 260.714 325.846 260.834V260.834Z" fill="#0070BF"></path><path d="M284.771 218.327C283.568 217.83 283.277 216.832 283.277 215.656C283.277 207.893 283.243 200.134 283.277 192.372C283.295 189.383 283.486 189.267 286.418 189.267C312.999 189.267 339.577 189.267 366.151 189.267C366.872 189.267 367.645 189.514 368.31 188.995C370.103 188.86 370.965 189.742 370.879 191.483C370.82 192.749 371.253 194.06 370.599 195.285C364.108 196.01 357.591 195.842 351.078 195.838C332.854 195.838 314.633 195.838 296.412 195.838C294.858 195.838 293.305 195.984 291.755 195.947C290.589 195.92 290.376 196.41 290.41 197.374C290.444 198.337 290.444 199.241 290.53 200.175C290.619 203.164 290.556 206.152 290.574 209.118C290.574 211.337 290.672 211.438 292.879 211.442C302.564 211.442 312.249 211.442 321.932 211.442C335.959 211.442 349.99 211.442 364.022 211.442C365.12 211.442 366.263 211.248 367.249 212.01C370.984 212.2 370.984 212.2 370.909 215.917C370.861 217.818 370.259 218.405 368.273 218.409C361.996 218.431 355.719 218.445 349.442 218.45C348.695 219.081 347.81 218.98 346.954 218.98C327.098 218.995 307.241 218.995 287.385 218.98C286.481 218.965 285.503 219.104 284.771 218.327Z" fill="#004ED8"></path><path d="M367.257 211.998C365.703 212.025 364.15 212.069 362.6 212.069C338.971 212.069 315.341 212.083 291.71 212.111C290.149 212.111 289.749 211.864 289.843 210.19C290.071 206.597 289.947 202.984 289.966 199.38C290.971 198.494 292.207 198.748 293.357 198.748C315.676 198.733 337.995 198.733 360.314 198.748C360.998 198.748 361.681 198.748 362.365 198.748C363.825 198.771 365.061 198.748 364.979 196.626C364.919 195.188 365.886 195.244 366.846 195.991C366.928 197.799 365.554 199.316 365.752 201.117C366.01 203.485 366.376 205.842 366.775 208.192C366.996 209.447 367.336 210.695 367.257 211.998Z" fill="#A7E3F9"></path><path d="M253.044 301.234C252.973 300.072 252.929 298.911 252.831 297.753C252.753 296.815 253.123 296.341 254.079 296.352C254.576 296.352 255.072 296.352 255.573 296.352C296.244 296.352 336.914 296.352 377.58 296.352C378.361 296.352 379.205 296.625 379.918 296.046C383.608 295.859 383.507 295.863 383.653 299.583C383.716 301.316 383.179 301.716 381.517 301.697C374.421 301.623 367.291 301.697 360.176 301.697C359.162 301.4 358.106 301.273 357.05 301.324H255.278C254.527 301.328 253.784 301.257 253.044 301.234Z" fill="#004483"></path><path d="M284.771 218.327C286.265 218.349 287.759 218.394 289.252 218.394C309.323 218.416 329.394 218.432 349.464 218.442C353.199 219.967 354.42 221.745 354.42 225.783C354.42 233.102 354.42 240.42 354.42 247.737C354.42 252.683 352.083 254.95 347.127 254.999C345.733 254.999 344.307 254.689 342.936 255.231C342.899 255.269 342.852 255.298 342.8 255.312C342.748 255.327 342.693 255.328 342.64 255.315C342.588 255.301 342.54 255.275 342.502 255.237C342.463 255.199 342.435 255.152 342.421 255.1C342.342 253.576 342.174 252.04 343.037 250.647C344.157 250.053 345.349 250.322 346.514 250.255C349.069 250.105 349.875 249.358 349.875 246.848C349.909 240.016 349.875 233.183 349.875 226.351C349.875 225.122 349.726 223.979 348.467 223.362C347.534 222.843 346.518 223.022 345.535 223.022C315.067 223.022 284.599 223.022 254.131 223.022C251.341 223.022 248.577 222.436 245.776 222.671C244.988 222.738 244.611 222.38 244.615 221.61C244.615 220.564 244.402 219.496 244.854 218.483C257.303 218.461 269.752 218.436 282.201 218.409C283.042 218.39 283.908 218.345 284.771 218.327Z" fill="#FEB700"></path><path d="M244.868 218.465C245.046 218.724 245.168 219.017 245.225 219.326C245.282 219.635 245.274 219.952 245.201 220.258C244.782 222.163 245.574 222.499 247.378 222.499C280.461 222.439 313.543 222.429 346.626 222.469C347.402 222.469 348.25 222.189 348.96 222.787C347.978 223.736 346.719 223.433 345.599 223.433C326.21 223.455 306.823 223.455 287.437 223.433H253.697C252.577 223.433 251.456 223.508 250.455 222.832C248.286 222.779 246.116 222.686 243.946 222.682C209.033 222.682 174.12 222.682 139.208 222.682C138.595 222.682 137.983 222.779 137.37 222.832H136.25C133.673 222.832 133.763 222.832 133.613 220.336C133.524 218.79 133.987 218.334 135.548 218.368C139.626 218.454 143.705 218.368 147.783 218.327C149.77 218.345 151.757 218.375 153.759 218.375H242.646C243.374 218.398 244.121 218.442 244.868 218.465Z" fill="#FDCE08"></path><path d="M137.258 250.498C137.829 250.871 138.464 250.703 139.073 250.703H242.963C243.579 250.703 244.199 250.759 244.83 250.789C245.377 251.351 245.717 252.082 245.795 252.861C245.874 253.641 245.687 254.425 245.264 255.085C208.7 255.1 172.138 255.1 135.577 255.085C134.912 255.085 134.192 255.264 133.643 254.681C133.643 254.498 133.643 254.308 133.643 254.132C133.691 250.58 133.691 250.58 137.258 250.498Z" fill="#FECD02"></path><path d="M217.653 337.003C217.653 329.244 217.575 321.485 217.653 313.726C217.653 312.157 217.332 311.597 215.621 311.601C191.283 311.66 166.944 311.677 142.603 311.649C141.232 311.907 140.911 310.962 140.777 309.95C140.714 309.158 140.701 308.363 140.736 307.57C141.856 307.544 142.976 307.495 144.097 307.495C168.017 307.495 191.938 307.48 215.861 307.45C217.489 307.45 217.93 307.824 217.915 309.479C217.825 318.052 217.885 326.622 217.877 335.195C217.84 335.796 218.038 336.435 217.653 337.003Z" fill="#C2EBF7"></path><path d="M366.853 195.98C365.901 195.696 365.154 195.607 365.4 197.045C365.774 199.32 365.74 199.335 363.305 199.335H292.218C291.471 199.335 290.724 199.361 289.977 199.376C289.742 195.375 289.742 195.364 293.958 195.364C316.053 195.364 338.145 195.375 360.235 195.398C363.694 195.398 367.148 195.312 370.603 195.263C369.464 196.074 367.951 194.938 366.853 195.98Z" fill="#71D4F3"></path><path d="M342.719 255.309C342.755 255.318 342.792 255.314 342.826 255.298C342.859 255.283 342.886 255.256 342.902 255.223C355.686 255.223 368.466 255.264 381.247 255.193C383.043 255.193 383.745 255.514 383.637 257.505C383.446 261.054 383.588 260.95 379.876 260.935C367.712 260.89 355.548 260.935 343.387 260.935L342.891 260.763C342.192 258.977 342.263 257.151 342.719 255.309Z" fill="#004583"></path><path d="M133.632 254.7C134.379 254.76 135.126 254.872 135.843 254.872C172.295 254.887 208.744 254.896 245.19 254.898C245.315 254.892 245.44 254.878 245.563 254.857C246.31 254.229 247.199 254.327 248.055 254.327C273.09 254.312 298.124 254.312 323.157 254.327C324.113 254.327 325.331 253.953 325.854 255.305C325.144 255.974 324.24 255.888 323.381 255.888C300.823 255.903 278.263 255.903 255.7 255.888C254.9 255.888 254.068 255.948 253.399 255.354C249.855 255.331 246.303 255.298 242.77 255.298C206.206 255.298 169.642 255.298 133.076 255.298C132.392 255.298 131.709 255.26 131.029 255.238C131.795 254.581 132.848 255.309 133.632 254.7Z" fill="#B1D1D3"></path><path d="M447.02 142.759C445.709 142.681 444.843 142.64 443.976 142.576C443.558 142.546 443.266 142.356 443.33 141.874C443.329 141.782 443.35 141.692 443.39 141.609C443.43 141.527 443.488 141.455 443.56 141.398C443.632 141.342 443.716 141.303 443.806 141.285C443.896 141.266 443.988 141.268 444.077 141.291C453.022 142.315 458.643 137.41 463.195 130.585C463.333 130.379 463.464 130.166 463.61 129.965C463.886 129.591 464.2 129.628 464.57 129.86C465.014 130.14 464.898 130.428 464.674 130.779C460.435 137.466 455.068 142.449 447.02 142.759Z" fill="#081951"></path><path d="M459.727 121.096C457.259 121.138 454.835 120.446 452.761 119.107C450.688 117.768 449.059 115.843 448.082 113.577C447.809 112.942 447.178 112.153 448.593 112.041C449 112.011 449.012 111.668 448.997 111.335C448.97 110.835 448.687 110.711 448.25 110.835C447.305 111.1 447.129 110.626 447.043 109.781C446.532 103.431 450.599 97.8536 456.914 96.2846C462.494 94.8987 468.686 98.0777 471.136 103.588C473.586 109.098 471.577 115.769 466.423 119.15C464.429 120.44 462.101 121.117 459.727 121.096V121.096Z" fill="#FEB78A"></path><path d="M247.028 295.949C245.974 295.986 244.921 296.049 243.868 296.049C208.044 296.049 172.222 296.049 136.4 296.049C134.97 296.049 133.539 296.008 132.113 295.986C130.462 295.963 129.521 295.13 129.498 293.479C129.476 283.468 129.476 273.458 129.498 263.449C129.498 261.809 130.454 260.968 132.079 260.882C132.325 260.882 132.576 260.882 132.826 260.882H245.721C246.277 260.882 246.841 260.916 247.397 260.931C246.001 261.813 245.564 263.06 245.575 264.704C245.635 273.707 245.635 282.71 245.575 291.712C245.56 293.367 245.874 294.768 247.028 295.949Z" fill="#FEFEFE"></path><path d="M342.719 255.309C342.776 257.132 342.834 258.952 342.891 260.77C342.409 262.62 343.007 264.543 342.517 266.587C340.049 265.063 337.662 263.651 335.362 262.141C334.615 261.667 334.148 261.641 333.397 262.141C331.089 263.658 328.706 265.063 326.241 266.579C325.688 264.592 326.391 262.661 325.823 260.838C325.85 260.789 325.861 260.734 325.855 260.679C325.849 260.624 325.826 260.572 325.789 260.531C324.912 258.664 325.356 256.796 325.879 254.928C325.005 253.505 325.203 252.007 325.554 250.498C325.483 247.834 325.532 245.174 325.603 242.518C325.651 240.692 326.133 240.221 327.997 240.187C332.265 240.105 336.538 240.12 340.807 240.187C341.755 240.187 342.883 240.311 342.977 241.476C343.223 244.599 343.492 247.733 342.928 250.856L342.719 255.309Z" fill="#FE3700"></path><path d="M342.951 250.852C342.484 247.957 342.809 245.04 342.757 242.137C342.757 241.114 342.626 240.583 341.368 240.606C336.717 240.688 332.067 240.688 327.418 240.606C326.163 240.606 326.044 241.102 326.025 242.134C325.973 245.04 326.294 247.954 325.835 250.849C325.592 250.972 325.435 250.901 325.36 250.643C324.613 250.591 323.866 250.498 323.146 250.498C299.644 250.498 276.141 250.498 252.637 250.498H250.557C251.337 249.265 251.188 248.092 251.188 246.941C251.188 239.982 251.188 233.019 251.207 226.056C251.262 224.938 250.992 223.828 250.43 222.862C251.109 222.824 251.789 222.757 252.469 222.757C283.697 222.757 314.924 222.757 346.152 222.757C347.082 222.757 348.019 222.787 348.942 222.802C349.41 223.035 349.799 223.403 350.059 223.858C350.318 224.313 350.436 224.835 350.398 225.357C350.339 232.858 350.361 240.359 350.335 247.856C350.335 249.926 349.67 250.568 347.586 250.688C346.04 250.766 344.486 250.516 342.951 250.852Z" fill="#A7E3F9"></path><path d="M325.36 250.643L325.834 250.849C325.909 252.343 325.982 253.837 326.055 255.331L325.898 255.29C325.371 254.599 324.624 254.965 324 254.965C298.604 254.93 273.201 254.914 247.793 254.917C247.046 254.917 246.299 254.879 245.552 254.861C244.745 253.613 245.634 252.055 244.805 250.811C246.299 250.77 247.793 250.699 249.286 250.699C274.207 250.699 299.132 250.699 324.06 250.699C324.49 250.688 324.923 250.658 325.36 250.643Z" fill="#FEB700"></path><path d="M325.913 255.287L326.07 255.328C325.988 257.071 325.907 258.804 325.827 260.528C302.052 260.528 278.274 260.546 254.493 260.584C252.999 260.584 252.626 260.15 253.044 258.824C253.417 257.704 252.211 256.404 253.417 255.369C258.075 255.346 262.736 255.317 267.393 255.313C286.888 255.31 306.395 255.302 325.913 255.287Z" fill="#004583"></path><path d="M399.5 76L392 48.5L468 28L475.5 55C474 55.5 472 56 469.5 57C458.5 61.4 445 87.5 443 87.5C441 87.5 438 85.5 425 78.5C414.6 72.9 403.667 74.5 399.5 76Z" fill="#F8EC7D" stroke="#F8EC7D"></path><path d="M488.5 53L478.5 18L481.5 13.5L492.5 52L488.5 53Z" fill="#F8EC7D" stroke="#F8EC7D"></path><circle cx="493" cy="62" r="11" fill="#6FE3FF"></circle><path d="M434 53.5L364 44.5L419 1L490.5 9.5L434 53.5Z" fill="#E48E66" stroke="#E48E66"></path></svg>