<svg width="171" height="171" viewBox="0 0 171 171" fill="none" xmlns="http://www.w3.org/2000/svg">
<path d="M78.9873 0.23381C61.3195 1.73674 44.5201 8.55002 31.1273 19.6383C24.4142 25.1824 17.3337 33.2983 12.6914 40.7461C6.71304 50.2981 2.37124 62.6221 0.601123 74.9795C0.0333496 78.9205 0.0333496 92.0795 0.601123 96.0205C2.00386 105.873 4.60894 114.49 8.68354 122.739C13.2591 132.091 17.7679 138.37 25.1824 145.818C32.4632 153.065 38.8089 157.674 47.7931 162.116C58.7812 167.593 70.1033 170.432 82.6611 170.9C102.4 171.601 121.37 165.523 137.435 153.332C141.509 150.26 149.692 142.144 152.698 138.27C169.263 116.761 174.841 90.3762 168.328 64.459C166.358 56.6104 162.25 46.9248 158.108 40.4121C153.032 32.3965 144.448 22.9781 137.435 17.6678C124.276 7.68166 109.246 1.83693 93.0146 0.334C89.6079 0.0334167 82.0933 -0.033371 78.9873 0.23381ZM97.1894 4.84279C105.806 6.14534 113.555 8.58342 121.236 12.3908C145.617 24.4477 162.116 47.0918 166.191 73.9776C167.026 79.5885 167.026 91.4116 166.191 97.0225C164.42 108.679 159.945 120.535 153.666 130.02C140.708 149.625 120.201 162.751 97.1894 166.157C80.891 168.562 63.6574 165.69 48.6949 158.108C24.982 146.051 8.88393 123.608 4.77593 96.8555C3.94097 91.5117 3.94097 79.4883 4.77593 74.1446C7.01362 59.5494 12.0902 47.6596 21.1746 35.5694C23.7128 32.1293 32.0958 23.7463 35.5693 21.1412C44.8874 14.1276 55.074 9.1512 65.6279 6.51271C69.3017 5.57756 73.6101 4.84279 79.1542 4.20822C81.7593 3.90764 93.8496 4.34181 97.1894 4.84279Z" fill="#EDF4F8"/>
<path d="M76.8165 16.1983C61.7872 18.1688 48.2942 24.5813 37.4397 34.9014C15.33 55.9758 9.35163 88.7731 22.711 116.026C38.1077 147.554 74.2782 162.784 107.543 151.729C144.081 139.605 163.886 100.028 151.763 63.4905C146.786 48.528 136.967 35.8032 123.574 26.9526C114.824 21.1747 103.802 17.2336 93.0147 16.0313C89.0403 15.5971 80.7909 15.6639 76.8165 16.1983ZM93.9165 20.2061C123.641 24.1137 146.886 47.359 150.794 77.0836C153.332 96.2209 146.987 116.026 133.861 130.087L131.49 132.625L130.688 129.853C125.879 113.187 112.119 100.496 94.718 96.6885C93.8163 96.4881 93.9165 96.3879 96.388 95.3192C104.738 91.7121 110.649 84.5983 112.753 75.6475C113.555 72.2409 113.488 66.3961 112.586 62.9561C111.15 57.5455 108.278 52.7696 104.303 49.0957C90.4764 36.4043 68.3667 40.7795 60.2842 57.8127C57.0446 64.6594 56.7774 72.8086 59.5161 79.8223C62.1546 86.6022 67.7655 92.3467 74.6122 95.3192C77.0837 96.4213 77.2173 96.4881 76.2821 96.6885C71.6731 97.7573 68.3333 98.9262 64.3589 100.93C55.3079 105.439 47.9268 112.92 43.2844 122.172C41.9819 124.743 39.7442 131.055 39.7442 132.124C39.7442 132.592 39.4436 132.425 38.3749 131.423C32.4967 125.712 26.3514 115.893 23.379 107.376C16.5991 88.0383 19.3378 66.0287 30.5262 49.2961C41.4809 32.9643 58.2803 22.5774 77.6848 20.0725C81.4255 19.6049 89.8419 19.6717 93.9165 20.2061ZM92.9813 47.025C96.9891 48.3944 99.2602 49.8305 102.366 52.9366C105.239 55.7754 107.276 59.1487 108.345 62.7891C111.684 73.9108 106.474 85.8674 96.1208 90.9774C92.4803 92.7809 89.4411 93.5157 85.5001 93.5157C81.5257 93.5157 78.5198 92.7809 74.846 90.9774C72.2075 89.6748 71.2055 88.9401 68.8342 86.5354C65.6614 83.3625 64.1585 81.058 62.9561 77.5846C58.2135 63.8912 66.5965 49.2293 80.8243 46.2235C84.3311 45.4887 89.5079 45.8227 92.9813 47.025ZM94.0167 100.663C107.109 103.602 117.863 111.818 123.808 123.441C125.478 126.714 127.315 131.824 127.749 134.462C127.949 135.765 127.883 135.865 126.447 137.067C121.737 140.941 113.488 145.484 107.376 147.621C86.669 154.835 63.8245 151.395 46.3571 138.37L43.0173 135.898L43.251 134.496C43.6852 131.824 45.4887 126.714 47.1921 123.441C51.3335 115.325 57.8796 108.779 65.9954 104.637C70.6712 102.233 73.5434 101.331 80.4903 100.062C82.2604 99.7278 91.7456 100.162 94.0167 100.663Z" fill="#EDF4F8"/>
</svg>
